<?xml version="1.0" encoding="UTF-8"?>
<svg version="1.1" xmlns="http://www.w3.org/2000/svg" width="92" height="135">
<path d="M0 0 C30.36 0 60.72 0 92 0 C92 44.55 92 89.1 92 135 C61.64 135 31.28 135 0 135 C0 90.45 0 45.9 0 0 Z " fill="#412F50" transform="translate(0,0)"/>
<path d="M0 0 C9.6877151 5.5358372 14.007364 14.48120281 17 25 C19.51771627 39.58086117 10.92386273 52.59087779 3 64 C0.26497911 67.85218903 -2.51713438 71.66954672 -5.30224609 75.4855957 C-12.56593849 85.46803385 -18.69955665 94.94903908 -22 107 C-29.83680731 103.4945034 -33.90034417 95.68121884 -37 88 C-40.18645063 75.33486712 -37.04682386 64.87722609 -30.5625 53.9375 C-26.56857451 47.65919843 -22.18955086 41.67873106 -17.79931641 35.67382812 C-5.58663226 19.26911654 -5.58663226 19.26911654 0 0 Z " fill="#FCFCFC" transform="translate(44,9)"/>
<path d="M0 0 C0.66 0 1.32 0 2 0 C8.17149194 15.12381424 13.88264348 30.47368045 7.26171875 46.43359375 C2.28673603 56.55298585 -4.39294498 63.83294267 -15 68 C-20.14035249 69.74019136 -24.51982384 70.22088807 -29.9375 70.125 C-30.62134766 70.11597656 -31.30519531 70.10695313 -32.00976562 70.09765625 C-33.67333287 70.07438958 -35.33671631 70.03853167 -37 70 C-36.73833124 54.82321183 -26.23854175 42.84537459 -17.61474609 31.203125 C-10.43448441 21.40652968 -3.87177646 11.61532939 0 0 Z " fill="#FBFBFC" transform="translate(73,54)"/>
</svg>
